<mxfile host="app.diagrams.net" modified="2022-09-09T22:49:08.640Z" agent="5.0 (Macintosh; Intel Mac OS X 10_15_7) AppleWebKit/537.36 (KHTML, like Gecko) Chrome/105.0.0.0 Safari/537.36" etag="-N80vxtcdGvhfJZY5ZjR" version="20.2.7" type="github">
  <diagram id="L0INqrVEjVy5AsWbUCMz" name="Page-1">
    <mxGraphModel dx="2878" dy="2140" grid="1" gridSize="10" guides="1" tooltips="1" connect="1" arrows="1" fold="1" page="1" pageScale="1" pageWidth="850" pageHeight="1100" math="0" shadow="0">
      <root>
        <mxCell id="0" />
        <mxCell id="1" parent="0" />
        <mxCell id="OZeg1mZhbEt2SnOGxPd5-1" value="&lt;blockquote style=&quot;margin: 0 0 0 40px; border: none; padding: 0px;&quot;&gt;&lt;h1 style=&quot;line-height: 0; font-size: 15px;&quot;&gt;&lt;p style=&quot;&quot;&gt;&lt;font face=&quot;Georgia&quot;&gt;&lt;span style=&quot;background-color: rgb(255, 255, 255); font-weight: normal;&quot;&gt;&lt;br&gt;&lt;/span&gt;&lt;/font&gt;&lt;/p&gt;&lt;/h1&gt;&lt;h1 style=&quot;line-height: 0; font-size: 15px;&quot;&gt;&lt;p style=&quot;&quot;&gt;&lt;font face=&quot;Georgia&quot;&gt;&lt;span style=&quot;background-color: rgb(255, 255, 255); font-weight: normal;&quot;&gt;&lt;br&gt;&lt;/span&gt;&lt;/font&gt;&lt;/p&gt;&lt;/h1&gt;&lt;h1 style=&quot;line-height: 0; font-size: 15px;&quot;&gt;&lt;p style=&quot;&quot;&gt;&lt;font face=&quot;Georgia&quot;&gt;&lt;span style=&quot;background-color: rgb(255, 255, 255); font-weight: normal;&quot;&gt;&lt;br&gt;&lt;/span&gt;&lt;/font&gt;&lt;/p&gt;&lt;/h1&gt;&lt;h1 style=&quot;line-height: 0; font-size: 15px;&quot;&gt;&lt;p style=&quot;&quot;&gt;&lt;font face=&quot;Georgia&quot;&gt;&lt;span style=&quot;background-color: rgb(255, 255, 255); font-weight: normal;&quot;&gt;&lt;br&gt;&lt;/span&gt;&lt;/font&gt;&lt;/p&gt;&lt;/h1&gt;&lt;h1 style=&quot;line-height: 0; font-size: 15px;&quot;&gt;&lt;p style=&quot;&quot;&gt;&lt;font face=&quot;Georgia&quot;&gt;&lt;span style=&quot;background-color: rgb(255, 255, 255); font-weight: normal;&quot;&gt;&lt;br&gt;&lt;/span&gt;&lt;/font&gt;&lt;/p&gt;&lt;/h1&gt;&lt;h1 style=&quot;line-height: 0; font-size: 15px;&quot;&gt;&lt;p style=&quot;&quot;&gt;&lt;font face=&quot;Georgia&quot;&gt;&lt;span style=&quot;background-color: rgb(255, 255, 255); font-weight: normal;&quot;&gt;&lt;br&gt;&lt;/span&gt;&lt;/font&gt;&lt;/p&gt;&lt;/h1&gt;&lt;h1 style=&quot;line-height: 0; font-size: 15px;&quot;&gt;&lt;p style=&quot;&quot;&gt;&lt;font face=&quot;Georgia&quot;&gt;&lt;span style=&quot;background-color: rgb(255, 255, 255); font-weight: normal;&quot;&gt;&lt;br&gt;&lt;/span&gt;&lt;/font&gt;&lt;/p&gt;&lt;/h1&gt;&lt;h1 style=&quot;line-height: 0; font-size: 15px;&quot;&gt;&lt;span id=&quot;docs-internal-guid-60cb77ab-7fff-22d5-e844-2adf97eea982&quot; style=&quot;&quot;&gt;&lt;p style=&quot;line-height: 1.38; margin-top: 0pt; margin-bottom: 0pt;&quot; dir=&quot;ltr&quot;&gt;&lt;span style=&quot;font-variant-numeric: normal; font-variant-east-asian: normal; vertical-align: baseline; background-color: rgb(255, 255, 255);&quot;&gt;&lt;font style=&quot;&quot; face=&quot;Georgia&quot;&gt;&lt;span style=&quot;font-weight: normal;&quot;&gt;El sistema de seguridad vial para la Ciudad de Buenos Aires manejará las &lt;/span&gt;&lt;font style=&quot;&quot; color=&quot;#ff6666&quot;&gt;cámaras&lt;/font&gt;&lt;span style=&quot;font-weight: normal;&quot;&gt; y los &lt;/span&gt;&lt;font style=&quot;&quot; color=&quot;#ff6666&quot;&gt;radares&lt;/font&gt;&lt;span style=&quot;font-weight: normal;&quot;&gt; que se encuentran asociados a esas cámaras.&amp;nbsp;&lt;/span&gt;&lt;/font&gt;&lt;/span&gt;&lt;/p&gt;&lt;p style=&quot;line-height: 1.38; margin-top: 0pt; margin-bottom: 0pt;&quot; dir=&quot;ltr&quot;&gt;&lt;span style=&quot;font-variant-numeric: normal; font-variant-east-asian: normal; vertical-align: baseline; background-color: rgb(255, 255, 255); font-weight: normal;&quot;&gt;&lt;font face=&quot;Georgia&quot;&gt;&lt;br&gt;&lt;/font&gt;&lt;/span&gt;&lt;/p&gt;&lt;p style=&quot;line-height: 1.38; margin-top: 0pt; margin-bottom: 0pt;&quot; dir=&quot;ltr&quot;&gt;&lt;span style=&quot;font-variant-numeric: normal; font-variant-east-asian: normal; vertical-align: baseline; background-color: rgb(255, 255, 255);&quot;&gt;&lt;font style=&quot;&quot; face=&quot;Georgia&quot;&gt;&lt;span style=&quot;font-weight: normal;&quot;&gt;Cada radar cuenta con dos cámaras que &lt;font color=&quot;#ff66ff&quot;&gt;toman&lt;/font&gt; una &lt;/span&gt;&lt;font color=&quot;#ff3333&quot;&gt;fotografía&lt;/font&gt;&lt;span style=&quot;font-weight: normal;&quot;&gt; de la parte delantera y de la parte trasera del &lt;/span&gt;&lt;font color=&quot;#ff3333&quot;&gt;vehículo&lt;/font&gt;&lt;span style=&quot;font-weight: normal;&quot;&gt;.&amp;nbsp;&lt;/span&gt;&lt;/font&gt;&lt;/span&gt;&lt;/p&gt;&lt;p style=&quot;line-height: 1.38; margin-top: 0pt; margin-bottom: 0pt;&quot; dir=&quot;ltr&quot;&gt;&lt;span style=&quot;font-variant-numeric: normal; font-variant-east-asian: normal; vertical-align: baseline; background-color: rgb(255, 255, 255); font-weight: normal;&quot;&gt;&lt;font face=&quot;Georgia&quot;&gt;&lt;br&gt;&lt;/font&gt;&lt;/span&gt;&lt;/p&gt;&lt;p style=&quot;line-height: 1.38; margin-top: 0pt; margin-bottom: 0pt;&quot; dir=&quot;ltr&quot;&gt;&lt;span style=&quot;font-variant-numeric: normal; font-variant-east-asian: normal; vertical-align: baseline; background-color: rgb(255, 255, 255); font-weight: normal;&quot;&gt;&lt;font face=&quot;Georgia&quot;&gt;La foto trasera es la que se &lt;font color=&quot;#ff66ff&quot;&gt;muestra de manera pública&lt;/font&gt; y la foto de adelante solo se muestra en caso de &lt;font color=&quot;#ff66ff&quot;&gt;denunciar robo del vehículo&lt;/font&gt;.&lt;/font&gt;&lt;/span&gt;&lt;/p&gt;&lt;/span&gt;&lt;/h1&gt;&lt;h1 style=&quot;line-height: 0; font-size: 15px;&quot;&gt;&lt;span style=&quot;&quot;&gt;&lt;p style=&quot;line-height: 1.38; margin-top: 0pt; margin-bottom: 0pt;&quot; dir=&quot;ltr&quot;&gt;&lt;span style=&quot;font-variant-numeric: normal; font-variant-east-asian: normal; vertical-align: baseline; background-color: rgb(255, 255, 255); font-weight: normal;&quot;&gt;&lt;font face=&quot;Georgia&quot;&gt;El sistema se encargará de tomar las fotografías cuando los vehículos superen la velocidad&amp;nbsp;&lt;/font&gt;&lt;/span&gt;&lt;span style=&quot;font-family: Georgia; background-color: rgb(255, 255, 255); font-weight: normal;&quot;&gt;máxima configurada para ese radar.&amp;nbsp;&lt;/span&gt;&lt;/p&gt;&lt;p style=&quot;line-height: 1.38; margin-top: 0pt; margin-bottom: 0pt;&quot; dir=&quot;ltr&quot;&gt;&lt;span style=&quot;font-family: Georgia; background-color: rgb(255, 255, 255); font-weight: normal;&quot;&gt;&lt;br&gt;&lt;/span&gt;&lt;/p&gt;&lt;p style=&quot;line-height: 1.38; margin-top: 0pt; margin-bottom: 0pt;&quot; dir=&quot;ltr&quot;&gt;&lt;span style=&quot;font-family: Georgia; background-color: rgb(255, 255, 255); font-weight: normal;&quot;&gt;Una vez tomada la fotografía, el sistema &lt;font color=&quot;#ff66ff&quot;&gt;verificará la&amp;nbsp;&lt;/font&gt;&lt;/span&gt;&lt;span style=&quot;font-family: Georgia; background-color: rgb(255, 255, 255); font-weight: normal;&quot;&gt;&lt;font color=&quot;#ff66ff&quot;&gt;patente del vehículo&lt;/font&gt;.&amp;nbsp;&lt;/span&gt;&lt;/p&gt;&lt;p style=&quot;line-height: 1.38; margin-top: 0pt; margin-bottom: 0pt;&quot; dir=&quot;ltr&quot;&gt;&lt;span style=&quot;font-family: Georgia; background-color: rgb(255, 255, 255); font-weight: normal;&quot;&gt;&lt;br&gt;&lt;/span&gt;&lt;/p&gt;&lt;p style=&quot;line-height: 1.38; margin-top: 0pt; margin-bottom: 0pt;&quot; dir=&quot;ltr&quot;&gt;&lt;span style=&quot;font-family: Georgia; background-color: rgb(255, 255, 255); font-weight: normal;&quot;&gt;En caso de que pueda relacionarla con una patente activa, se &lt;font color=&quot;#ff33ff&quot;&gt;levantará una infracción&lt;/font&gt; para esa patente con los datos de la patente, el lugar donde se tomó la fotografía y las fotografías.&lt;/span&gt;&lt;/p&gt;&lt;/span&gt;&lt;/h1&gt;&lt;h1 style=&quot;line-height: 0; font-size: 15px;&quot;&gt;&lt;span style=&quot;&quot;&gt;&lt;p style=&quot;line-height: 1.38; margin-top: 0pt; margin-bottom: 0pt;&quot; dir=&quot;ltr&quot;&gt;&lt;span style=&quot;font-variant-numeric: normal; font-variant-east-asian: normal; vertical-align: baseline; background-color: rgb(255, 255, 255); font-weight: normal;&quot;&gt;&lt;font face=&quot;Georgia&quot;&gt;El sistema consultará los datos de la patente en un sistema del Registro de Propiedad&amp;nbsp;&lt;/font&gt;&lt;/span&gt;&lt;span style=&quot;font-family: Georgia; background-color: rgb(255, 255, 255); font-weight: normal;&quot;&gt;Automotor.&amp;nbsp;&lt;/span&gt;&lt;/p&gt;&lt;p style=&quot;line-height: 1.38; margin-top: 0pt; margin-bottom: 0pt;&quot; dir=&quot;ltr&quot;&gt;&lt;span style=&quot;font-family: Georgia; background-color: rgb(255, 255, 255); font-weight: normal;&quot;&gt;&lt;br&gt;&lt;/span&gt;&lt;/p&gt;&lt;p style=&quot;line-height: 1.38; margin-top: 0pt; margin-bottom: 0pt;&quot; dir=&quot;ltr&quot;&gt;&lt;span style=&quot;font-family: Georgia; background-color: rgb(255, 255, 255); font-weight: normal;&quot;&gt;Para cada patente consultada, el sistema &lt;font color=&quot;#ff33ff&quot;&gt;informará si el vehículo esta denunciado como robado&lt;/font&gt;, modelo del vehículo, marca, datos del &lt;font color=&quot;#ff0000&quot;&gt;dueño&lt;/font&gt; y dirección para&lt;/span&gt;&lt;/p&gt;&lt;/span&gt;&lt;/h1&gt;&lt;h1 style=&quot;line-height: 0; font-size: 15px;&quot;&gt;&lt;span style=&quot;&quot;&gt;&lt;p style=&quot;line-height: 1.38; margin-top: 0pt; margin-bottom: 0pt;&quot; dir=&quot;ltr&quot;&gt;&lt;span style=&quot;font-variant-numeric: normal; font-variant-east-asian: normal; vertical-align: baseline; background-color: rgb(255, 255, 255); font-weight: normal;&quot;&gt;&lt;font face=&quot;Georgia&quot;&gt;enviarle la multa.&lt;/font&gt;&lt;/span&gt;&lt;/p&gt;&lt;/span&gt;&lt;/h1&gt;&lt;h1 style=&quot;line-height: 0; font-size: 15px;&quot;&gt;&lt;span style=&quot;&quot;&gt;&lt;p style=&quot;line-height: 1.38; margin-top: 0pt; margin-bottom: 0pt;&quot; dir=&quot;ltr&quot;&gt;&lt;span style=&quot;font-variant-numeric: normal; font-variant-east-asian: normal; vertical-align: baseline; background-color: rgb(255, 255, 255); font-weight: normal;&quot;&gt;&lt;font face=&quot;Georgia&quot;&gt;El sistema deberá permitir consultar las multas de los &lt;font color=&quot;#ff0000&quot;&gt;usuarios&lt;/font&gt;.&lt;/font&gt;&lt;/span&gt;&lt;/p&gt;&lt;/span&gt;&lt;/h1&gt;&lt;h1 style=&quot;line-height: 0; font-size: 15px;&quot;&gt;&lt;span style=&quot;&quot;&gt;&lt;p style=&quot;line-height: 1.38; margin-top: 0pt; margin-bottom: 0pt;&quot; dir=&quot;ltr&quot;&gt;&lt;span style=&quot;font-variant-numeric: normal; font-variant-east-asian: normal; vertical-align: baseline; background-color: rgb(255, 255, 255); font-weight: normal;&quot;&gt;&lt;font face=&quot;Georgia&quot;&gt;En aquellos vehículos que no cuenten con la patente en la parte delantera, se enviará un&lt;/font&gt;&lt;/span&gt;&lt;/p&gt;&lt;/span&gt;&lt;/h1&gt;&lt;h1 style=&quot;line-height: 0; font-size: 15px;&quot;&gt;&lt;span style=&quot;&quot;&gt;&lt;p style=&quot;line-height: 1.38; margin-top: 0pt; margin-bottom: 0pt;&quot; dir=&quot;ltr&quot;&gt;&lt;span style=&quot;font-variant-numeric: normal; font-variant-east-asian: normal; vertical-align: baseline; background-color: rgb(255, 255, 255); font-weight: normal;&quot;&gt;&lt;font face=&quot;Georgia&quot;&gt;&lt;font color=&quot;#ff33ff&quot;&gt;aviso a la policía&lt;/font&gt; de la ciudad para su seguimiento.&lt;/font&gt;&lt;/span&gt;&lt;/p&gt;&lt;/span&gt;&lt;/h1&gt;&lt;h1 style=&quot;line-height: 0; font-size: 15px;&quot;&gt;&lt;span style=&quot;&quot;&gt;&lt;p style=&quot;line-height: 1.38; margin-top: 0pt; margin-bottom: 0pt;&quot; dir=&quot;ltr&quot;&gt;&lt;span style=&quot;font-variant-numeric: normal; font-variant-east-asian: normal; vertical-align: baseline; background-color: rgb(255, 255, 255); font-weight: normal;&quot;&gt;&lt;font face=&quot;Georgia&quot;&gt;Cuando un vehículo cuente con más de 3 infracciones en menos de 2 horas, también se dará aviso a la policía de la ciudad para su seguimiento.&lt;/font&gt;&lt;/span&gt;&lt;/p&gt;&lt;/span&gt;&lt;/h1&gt;&lt;h1 style=&quot;line-height: 0; font-size: 15px;&quot;&gt;&lt;span style=&quot;&quot;&gt;&lt;p style=&quot;line-height: 1.38; margin-top: 0pt; margin-bottom: 0pt;&quot; dir=&quot;ltr&quot;&gt;&lt;span style=&quot;font-variant-numeric: normal; font-variant-east-asian: normal; vertical-align: baseline; background-color: rgb(255, 255, 255); font-weight: normal;&quot;&gt;&lt;font face=&quot;Georgia&quot;&gt;Se dispondrá de una consulta web donde se podrán visualizar las multas de una determinada patente y DNI del dueño del vehículo.&lt;/font&gt;&lt;/span&gt;&lt;/p&gt;&lt;/span&gt;&lt;/h1&gt;&lt;/blockquote&gt;&lt;h1 style=&quot;line-height: 0; font-size: 15px;&quot;&gt;&lt;span style=&quot;&quot;&gt;&lt;div style=&quot;font-weight: normal;&quot;&gt;&lt;span style=&quot;font-family: Arial; background-color: rgb(255, 255, 255); font-variant-numeric: normal; font-variant-east-asian: normal; vertical-align: baseline;&quot;&gt;&lt;br&gt;&lt;/span&gt;&lt;/div&gt;&lt;/span&gt;&lt;/h1&gt;" style="text;html=1;strokeColor=#6c8ebf;fillColor=#dae8fc;spacing=0;spacingTop=0;whiteSpace=wrap;overflow=hidden;rounded=0;verticalAlign=top;horizontal=1;perimeterSpacing=5;glass=0;shadow=0;sketch=0;" vertex="1" parent="1">
          <mxGeometry x="-1200" y="-100" width="1050" height="700" as="geometry" />
        </mxCell>
        <mxCell id="OZeg1mZhbEt2SnOGxPd5-2" value="Radar" style="swimlane;fontStyle=1;align=center;verticalAlign=top;childLayout=stackLayout;horizontal=1;startSize=26;horizontalStack=0;resizeParent=1;resizeParentMax=0;resizeLast=0;collapsible=1;marginBottom=0;rounded=0;shadow=0;glass=0;sketch=0;" vertex="1" parent="1">
          <mxGeometry x="-900" y="930" width="160" height="86" as="geometry" />
        </mxCell>
        <mxCell id="OZeg1mZhbEt2SnOGxPd5-3" value="+ velocidadMaxima: Int" style="text;strokeColor=none;fillColor=none;align=left;verticalAlign=top;spacingLeft=4;spacingRight=4;overflow=hidden;rotatable=0;points=[[0,0.5],[1,0.5]];portConstraint=eastwest;rounded=0;shadow=0;glass=0;sketch=0;" vertex="1" parent="OZeg1mZhbEt2SnOGxPd5-2">
          <mxGeometry y="26" width="160" height="26" as="geometry" />
        </mxCell>
        <mxCell id="OZeg1mZhbEt2SnOGxPd5-4" value="" style="line;strokeWidth=1;fillColor=none;align=left;verticalAlign=middle;spacingTop=-1;spacingLeft=3;spacingRight=3;rotatable=0;labelPosition=right;points=[];portConstraint=eastwest;rounded=0;shadow=0;glass=0;sketch=0;" vertex="1" parent="OZeg1mZhbEt2SnOGxPd5-2">
          <mxGeometry y="52" width="160" height="8" as="geometry" />
        </mxCell>
        <mxCell id="OZeg1mZhbEt2SnOGxPd5-5" value="+ method(type): type" style="text;strokeColor=none;fillColor=none;align=left;verticalAlign=top;spacingLeft=4;spacingRight=4;overflow=hidden;rotatable=0;points=[[0,0.5],[1,0.5]];portConstraint=eastwest;rounded=0;shadow=0;glass=0;sketch=0;" vertex="1" parent="OZeg1mZhbEt2SnOGxPd5-2">
          <mxGeometry y="60" width="160" height="26" as="geometry" />
        </mxCell>
        <mxCell id="OZeg1mZhbEt2SnOGxPd5-6" value="Camara" style="swimlane;fontStyle=1;align=center;verticalAlign=top;childLayout=stackLayout;horizontal=1;startSize=26;horizontalStack=0;resizeParent=1;resizeParentMax=0;resizeLast=0;collapsible=1;marginBottom=0;rounded=0;shadow=0;glass=0;sketch=0;" vertex="1" parent="1">
          <mxGeometry x="-500" y="800" width="160" height="86" as="geometry" />
        </mxCell>
        <mxCell id="OZeg1mZhbEt2SnOGxPd5-7" value="+ field: type" style="text;strokeColor=none;fillColor=none;align=left;verticalAlign=top;spacingLeft=4;spacingRight=4;overflow=hidden;rotatable=0;points=[[0,0.5],[1,0.5]];portConstraint=eastwest;rounded=0;shadow=0;glass=0;sketch=0;" vertex="1" parent="OZeg1mZhbEt2SnOGxPd5-6">
          <mxGeometry y="26" width="160" height="26" as="geometry" />
        </mxCell>
        <mxCell id="OZeg1mZhbEt2SnOGxPd5-8" value="" style="line;strokeWidth=1;fillColor=none;align=left;verticalAlign=middle;spacingTop=-1;spacingLeft=3;spacingRight=3;rotatable=0;labelPosition=right;points=[];portConstraint=eastwest;rounded=0;shadow=0;glass=0;sketch=0;" vertex="1" parent="OZeg1mZhbEt2SnOGxPd5-6">
          <mxGeometry y="52" width="160" height="8" as="geometry" />
        </mxCell>
        <mxCell id="OZeg1mZhbEt2SnOGxPd5-9" value="+ tomarFoto(): Foto" style="text;strokeColor=none;fillColor=none;align=left;verticalAlign=top;spacingLeft=4;spacingRight=4;overflow=hidden;rotatable=0;points=[[0,0.5],[1,0.5]];portConstraint=eastwest;rounded=0;shadow=0;glass=0;sketch=0;" vertex="1" parent="OZeg1mZhbEt2SnOGxPd5-6">
          <mxGeometry y="60" width="160" height="26" as="geometry" />
        </mxCell>
        <mxCell id="OZeg1mZhbEt2SnOGxPd5-10" value="Use" style="endArrow=open;endSize=12;dashed=1;html=1;rounded=0;exitX=1;exitY=0.5;exitDx=0;exitDy=0;entryX=0;entryY=0.5;entryDx=0;entryDy=0;edgeStyle=orthogonalEdgeStyle;" edge="1" parent="1" source="OZeg1mZhbEt2SnOGxPd5-3" target="OZeg1mZhbEt2SnOGxPd5-7">
          <mxGeometry width="160" relative="1" as="geometry">
            <mxPoint x="-710" y="960" as="sourcePoint" />
            <mxPoint x="-550" y="960" as="targetPoint" />
          </mxGeometry>
        </mxCell>
        <mxCell id="OZeg1mZhbEt2SnOGxPd5-11" value="Vehiculo" style="swimlane;fontStyle=1;align=center;verticalAlign=top;childLayout=stackLayout;horizontal=1;startSize=26;horizontalStack=0;resizeParent=1;resizeParentMax=0;resizeLast=0;collapsible=1;marginBottom=0;rounded=0;shadow=0;glass=0;sketch=0;" vertex="1" parent="1">
          <mxGeometry x="-1280" y="760" width="160" height="86" as="geometry" />
        </mxCell>
        <mxCell id="OZeg1mZhbEt2SnOGxPd5-12" value="+ field: type" style="text;strokeColor=none;fillColor=none;align=left;verticalAlign=top;spacingLeft=4;spacingRight=4;overflow=hidden;rotatable=0;points=[[0,0.5],[1,0.5]];portConstraint=eastwest;rounded=0;shadow=0;glass=0;sketch=0;" vertex="1" parent="OZeg1mZhbEt2SnOGxPd5-11">
          <mxGeometry y="26" width="160" height="26" as="geometry" />
        </mxCell>
        <mxCell id="OZeg1mZhbEt2SnOGxPd5-13" value="" style="line;strokeWidth=1;fillColor=none;align=left;verticalAlign=middle;spacingTop=-1;spacingLeft=3;spacingRight=3;rotatable=0;labelPosition=right;points=[];portConstraint=eastwest;rounded=0;shadow=0;glass=0;sketch=0;" vertex="1" parent="OZeg1mZhbEt2SnOGxPd5-11">
          <mxGeometry y="52" width="160" height="8" as="geometry" />
        </mxCell>
        <mxCell id="OZeg1mZhbEt2SnOGxPd5-14" value="+ method(type): type" style="text;strokeColor=none;fillColor=none;align=left;verticalAlign=top;spacingLeft=4;spacingRight=4;overflow=hidden;rotatable=0;points=[[0,0.5],[1,0.5]];portConstraint=eastwest;rounded=0;shadow=0;glass=0;sketch=0;" vertex="1" parent="OZeg1mZhbEt2SnOGxPd5-11">
          <mxGeometry y="60" width="160" height="26" as="geometry" />
        </mxCell>
        <mxCell id="OZeg1mZhbEt2SnOGxPd5-15" value="Infraccion" style="swimlane;fontStyle=1;align=center;verticalAlign=top;childLayout=stackLayout;horizontal=1;startSize=26;horizontalStack=0;resizeParent=1;resizeParentMax=0;resizeLast=0;collapsible=1;marginBottom=0;rounded=0;shadow=0;glass=0;sketch=0;" vertex="1" parent="1">
          <mxGeometry x="-960" y="650" width="160" height="86" as="geometry" />
        </mxCell>
        <mxCell id="OZeg1mZhbEt2SnOGxPd5-16" value="+ field: type" style="text;strokeColor=none;fillColor=none;align=left;verticalAlign=top;spacingLeft=4;spacingRight=4;overflow=hidden;rotatable=0;points=[[0,0.5],[1,0.5]];portConstraint=eastwest;rounded=0;shadow=0;glass=0;sketch=0;" vertex="1" parent="OZeg1mZhbEt2SnOGxPd5-15">
          <mxGeometry y="26" width="160" height="26" as="geometry" />
        </mxCell>
        <mxCell id="OZeg1mZhbEt2SnOGxPd5-17" value="" style="line;strokeWidth=1;fillColor=none;align=left;verticalAlign=middle;spacingTop=-1;spacingLeft=3;spacingRight=3;rotatable=0;labelPosition=right;points=[];portConstraint=eastwest;rounded=0;shadow=0;glass=0;sketch=0;" vertex="1" parent="OZeg1mZhbEt2SnOGxPd5-15">
          <mxGeometry y="52" width="160" height="8" as="geometry" />
        </mxCell>
        <mxCell id="OZeg1mZhbEt2SnOGxPd5-18" value="+ method(type): type" style="text;strokeColor=none;fillColor=none;align=left;verticalAlign=top;spacingLeft=4;spacingRight=4;overflow=hidden;rotatable=0;points=[[0,0.5],[1,0.5]];portConstraint=eastwest;rounded=0;shadow=0;glass=0;sketch=0;" vertex="1" parent="OZeg1mZhbEt2SnOGxPd5-15">
          <mxGeometry y="60" width="160" height="26" as="geometry" />
        </mxCell>
      </root>
    </mxGraphModel>
  </diagram>
</mxfile>
